<?xml version="1.0" encoding="utf-8"?>
<!-- Generator: Adobe Illustrator 26.0.3, SVG Export Plug-In . SVG Version: 6.00 Build 0)  -->
<svg version="1.1"
	 id="svg2" inkscape:output_extension="org.inkscape.output.svg.inkscape" inkscape:version="0.46" sodipodi:docname="Status EX icon.svg" sodipodi:version="0.32" xmlns:cc="http://creativecommons.org/ns#" xmlns:dc="http://purl.org/dc/elements/1.1/" xmlns:inkscape="http://www.inkscape.org/namespaces/inkscape" xmlns:rdf="http://www.w3.org/1999/02/22-rdf-syntax-ns#" xmlns:sodipodi="http://sodipodi.sourceforge.net/DTD/sodipodi-0.dtd" xmlns:svg="http://www.w3.org/2000/svg"
	 xmlns="http://www.w3.org/2000/svg" xmlns:xlink="http://www.w3.org/1999/xlink" x="0px" y="0px" viewBox="0 0 30 30"
	 style="enable-background:new 0 0 30 30;" xml:space="preserve">
<style type="text/css">
	.st0{fill:#FFFFFF;}
</style>
<defs>
	
		<inkscape:perspective  id="perspective10" inkscape:persp3d-origin="372.04724 : 350.78739 : 1" inkscape:vp_x="0 : 526.18109 : 1" inkscape:vp_y="0 : 1000 : 0" inkscape:vp_z="744.09448 : 526.18109 : 1" sodipodi:type="inkscape:persp3d">
		</inkscape:perspective>
	
		<inkscape:perspective  id="perspective2489" inkscape:persp3d-origin="120 : 21.333333 : 1" inkscape:vp_x="0 : 32 : 1" inkscape:vp_y="0 : 1000 : 0" inkscape:vp_z="240 : 32 : 1" sodipodi:type="inkscape:persp3d">
		</inkscape:perspective>
</defs>
<sodipodi:namedview  bordercolor="#666666" borderopacity="1.0" id="base" inkscape:current-layer="layer1" inkscape:cx="148.08432" inkscape:cy="27.051517" inkscape:document-units="px" inkscape:pageopacity="0.0" inkscape:pageshadow="2" inkscape:window-height="712" inkscape:window-width="1024" inkscape:window-x="-4" inkscape:window-y="-4" inkscape:zoom="2.6428326" pagecolor="#ffffff" showgrid="false">
	</sodipodi:namedview>
<g id="layer1" transform="translate(-370.22034,-489.78955)" inkscape:groupmode="layer" inkscape:label="1. réteg">
	<path id="path13404" d="M400.2,504.8c0,8.3-6.7,15-15,15s-15-6.7-15-15c0-8.3,6.7-15,15-15S400.2,496.5,400.2,504.8L400.2,504.8z"
		/>
</g>
<path id="text13434_00000093175125479317963970000010967428083321180062_" class="st0" d="M16,20.1V9.9h7.7v1.7h-5.6v2.2h5.2v1.7
	h-5.2v2.8h5.8v1.7H16z"/>
<path class="st0" d="M5.6,20.1V9.9h4.4c1.1,0,1.9,0.1,2.4,0.3c0.5,0.2,0.9,0.5,1.2,1c0.3,0.5,0.5,1,0.5,1.6c0,0.8-0.2,1.4-0.7,1.9
	c-0.5,0.5-1.1,0.8-2.1,0.9c0.5,0.3,0.8,0.5,1.1,0.8c0.3,0.3,0.7,0.9,1.2,1.6l1.3,2h-2.5L11,17.9c-0.5-0.8-0.9-1.3-1.1-1.5
	c-0.2-0.2-0.4-0.3-0.6-0.4c-0.2-0.1-0.6-0.1-1.1-0.1H7.7v4.2H5.6z"/>
<path d="M11.2,14.1c0.3-0.1,0.4-0.2,0.6-0.4c0.1-0.2,0.2-0.5,0.2-0.8c0-0.3-0.1-0.6-0.3-0.8c-0.2-0.2-0.5-0.3-0.8-0.4
	c-0.2,0-0.7,0-1.5,0H7.7v2.6h1.6C10.3,14.2,10.9,14.2,11.2,14.1"/>
</svg>
